<mxfile host="app.diagrams.net" modified="2024-05-26T22:43:10.050Z" agent="Mozilla/5.0 (Windows NT 10.0; Win64; x64) AppleWebKit/537.36 (KHTML, like Gecko) Chrome/125.0.0.0 Safari/537.36" etag="PyGPADXeR2gSapJtSIpy" version="24.4.8" type="github">
  <diagram name="Page-1" id="rmsH0uK1KOe1VpGeyeAv">
    <mxGraphModel dx="1864" dy="666" grid="1" gridSize="10" guides="1" tooltips="1" connect="1" arrows="1" fold="1" page="1" pageScale="1" pageWidth="850" pageHeight="1100" math="0" shadow="0">
      <root>
        <mxCell id="0" />
        <mxCell id="1" parent="0" />
        <mxCell id="-qG79by7kBqQ-nuzrStk-1" value="" style="edgeStyle=orthogonalEdgeStyle;rounded=0;orthogonalLoop=1;jettySize=auto;html=1;entryX=0.5;entryY=0;entryDx=0;entryDy=0;" edge="1" parent="1" source="-qG79by7kBqQ-nuzrStk-2" target="-qG79by7kBqQ-nuzrStk-4">
          <mxGeometry relative="1" as="geometry">
            <mxPoint x="-690" y="750" as="targetPoint" />
          </mxGeometry>
        </mxCell>
        <mxCell id="-qG79by7kBqQ-nuzrStk-2" value="&lt;p style=&quot;margin:0px;margin-top:4px;text-align:center;&quot;&gt;&lt;b&gt;Input layer&lt;/b&gt;&lt;/p&gt;&lt;hr size=&quot;1&quot; style=&quot;border-style:solid;&quot;&gt;&lt;p style=&quot;text-align: center; margin: 0px 0px 0px 4px;&quot;&gt;Input:&amp;nbsp;&lt;/p&gt;&lt;p style=&quot;text-align: center; margin: 0px 0px 0px 4px;&quot;&gt;([128, 12, 2])&lt;/p&gt;&lt;p style=&quot;text-align: center; margin: 0px 0px 0px 4px;&quot;&gt;Output:&lt;/p&gt;&lt;p style=&quot;text-align: center; margin: 0px 0px 0px 4px;&quot;&gt;([128, 12, 2])&lt;br&gt;&lt;/p&gt;" style="verticalAlign=top;align=left;overflow=fill;html=1;whiteSpace=wrap;" vertex="1" parent="1">
          <mxGeometry x="-770" y="630" width="160" height="90" as="geometry" />
        </mxCell>
        <mxCell id="-qG79by7kBqQ-nuzrStk-3" style="edgeStyle=orthogonalEdgeStyle;rounded=0;orthogonalLoop=1;jettySize=auto;html=1;exitX=0.5;exitY=1;exitDx=0;exitDy=0;entryX=0.5;entryY=0;entryDx=0;entryDy=0;" edge="1" parent="1" source="-qG79by7kBqQ-nuzrStk-4" target="-qG79by7kBqQ-nuzrStk-9">
          <mxGeometry relative="1" as="geometry" />
        </mxCell>
        <mxCell id="-qG79by7kBqQ-nuzrStk-4" value="GRU_1" style="swimlane;fontStyle=1;align=center;verticalAlign=top;childLayout=stackLayout;horizontal=1;startSize=26;horizontalStack=0;resizeParent=1;resizeParentMax=0;resizeLast=0;collapsible=1;marginBottom=0;whiteSpace=wrap;html=1;" vertex="1" parent="1">
          <mxGeometry x="-770" y="760" width="160" height="158" as="geometry" />
        </mxCell>
        <mxCell id="-qG79by7kBqQ-nuzrStk-5" value="units: 128&lt;div&gt;activation: tahn&lt;/div&gt;&lt;div&gt;return_seq: True&lt;/div&gt;" style="text;strokeColor=none;fillColor=none;align=center;verticalAlign=top;spacingLeft=4;spacingRight=4;overflow=hidden;rotatable=0;points=[[0,0.5],[1,0.5]];portConstraint=eastwest;whiteSpace=wrap;html=1;" vertex="1" parent="-qG79by7kBqQ-nuzrStk-4">
          <mxGeometry y="26" width="160" height="54" as="geometry" />
        </mxCell>
        <mxCell id="-qG79by7kBqQ-nuzrStk-6" value="" style="line;strokeWidth=1;fillColor=none;align=left;verticalAlign=middle;spacingTop=-1;spacingLeft=3;spacingRight=3;rotatable=0;labelPosition=right;points=[];portConstraint=eastwest;strokeColor=inherit;" vertex="1" parent="-qG79by7kBqQ-nuzrStk-4">
          <mxGeometry y="80" width="160" height="8" as="geometry" />
        </mxCell>
        <mxCell id="-qG79by7kBqQ-nuzrStk-7" value="&lt;p style=&quot;margin: 0px 0px 0px 4px;&quot;&gt;Input:&amp;nbsp;&lt;/p&gt;&lt;p style=&quot;margin: 0px 0px 0px 4px;&quot;&gt;([128, 12, 2])&lt;/p&gt;&lt;p style=&quot;margin: 0px 0px 0px 4px;&quot;&gt;Output:&lt;/p&gt;&lt;p style=&quot;margin: 0px 0px 0px 4px;&quot;&gt;([128, 12, 128])&lt;/p&gt;" style="text;strokeColor=none;fillColor=none;align=center;verticalAlign=top;spacingLeft=4;spacingRight=4;overflow=hidden;rotatable=0;points=[[0,0.5],[1,0.5]];portConstraint=eastwest;whiteSpace=wrap;html=1;" vertex="1" parent="-qG79by7kBqQ-nuzrStk-4">
          <mxGeometry y="88" width="160" height="70" as="geometry" />
        </mxCell>
        <mxCell id="-qG79by7kBqQ-nuzrStk-8" value="" style="edgeStyle=orthogonalEdgeStyle;rounded=0;orthogonalLoop=1;jettySize=auto;html=1;entryX=0.5;entryY=0;entryDx=0;entryDy=0;" edge="1" parent="1" source="-qG79by7kBqQ-nuzrStk-9" target="-qG79by7kBqQ-nuzrStk-13">
          <mxGeometry relative="1" as="geometry" />
        </mxCell>
        <mxCell id="-qG79by7kBqQ-nuzrStk-9" value="Dropout_1" style="swimlane;fontStyle=1;align=center;verticalAlign=top;childLayout=stackLayout;horizontal=1;startSize=26;horizontalStack=0;resizeParent=1;resizeParentMax=0;resizeLast=0;collapsible=1;marginBottom=0;whiteSpace=wrap;html=1;" vertex="1" parent="1">
          <mxGeometry x="-770" y="960" width="160" height="128" as="geometry" />
        </mxCell>
        <mxCell id="-qG79by7kBqQ-nuzrStk-10" value="rate:0.3" style="text;strokeColor=none;fillColor=none;align=center;verticalAlign=top;spacingLeft=4;spacingRight=4;overflow=hidden;rotatable=0;points=[[0,0.5],[1,0.5]];portConstraint=eastwest;whiteSpace=wrap;html=1;" vertex="1" parent="-qG79by7kBqQ-nuzrStk-9">
          <mxGeometry y="26" width="160" height="24" as="geometry" />
        </mxCell>
        <mxCell id="-qG79by7kBqQ-nuzrStk-11" value="" style="line;strokeWidth=1;fillColor=none;align=left;verticalAlign=middle;spacingTop=-1;spacingLeft=3;spacingRight=3;rotatable=0;labelPosition=right;points=[];portConstraint=eastwest;strokeColor=inherit;" vertex="1" parent="-qG79by7kBqQ-nuzrStk-9">
          <mxGeometry y="50" width="160" height="8" as="geometry" />
        </mxCell>
        <mxCell id="-qG79by7kBqQ-nuzrStk-12" value="&lt;p style=&quot;margin: 0px 0px 0px 4px;&quot;&gt;Input:&amp;nbsp;&lt;/p&gt;&lt;p style=&quot;margin: 0px 0px 0px 4px;&quot;&gt;([128, 12, 128])&lt;/p&gt;&lt;p style=&quot;margin: 0px 0px 0px 4px;&quot;&gt;Output:&lt;/p&gt;&lt;p style=&quot;margin: 0px 0px 0px 4px;&quot;&gt;([128, 12, 128])&lt;/p&gt;" style="text;strokeColor=none;fillColor=none;align=center;verticalAlign=top;spacingLeft=4;spacingRight=4;overflow=hidden;rotatable=0;points=[[0,0.5],[1,0.5]];portConstraint=eastwest;whiteSpace=wrap;html=1;" vertex="1" parent="-qG79by7kBqQ-nuzrStk-9">
          <mxGeometry y="58" width="160" height="70" as="geometry" />
        </mxCell>
        <mxCell id="-qG79by7kBqQ-nuzrStk-13" value="GRU_2" style="swimlane;fontStyle=1;align=center;verticalAlign=top;childLayout=stackLayout;horizontal=1;startSize=26;horizontalStack=0;resizeParent=1;resizeParentMax=0;resizeLast=0;collapsible=1;marginBottom=0;whiteSpace=wrap;html=1;" vertex="1" parent="1">
          <mxGeometry x="-770" y="1130" width="160" height="158" as="geometry" />
        </mxCell>
        <mxCell id="-qG79by7kBqQ-nuzrStk-14" value="units: 64&lt;div&gt;activation: tahn&lt;/div&gt;&lt;div&gt;return_seq: True&lt;/div&gt;" style="text;strokeColor=none;fillColor=none;align=center;verticalAlign=top;spacingLeft=4;spacingRight=4;overflow=hidden;rotatable=0;points=[[0,0.5],[1,0.5]];portConstraint=eastwest;whiteSpace=wrap;html=1;" vertex="1" parent="-qG79by7kBqQ-nuzrStk-13">
          <mxGeometry y="26" width="160" height="54" as="geometry" />
        </mxCell>
        <mxCell id="-qG79by7kBqQ-nuzrStk-15" value="" style="line;strokeWidth=1;fillColor=none;align=left;verticalAlign=middle;spacingTop=-1;spacingLeft=3;spacingRight=3;rotatable=0;labelPosition=right;points=[];portConstraint=eastwest;strokeColor=inherit;" vertex="1" parent="-qG79by7kBqQ-nuzrStk-13">
          <mxGeometry y="80" width="160" height="8" as="geometry" />
        </mxCell>
        <mxCell id="-qG79by7kBqQ-nuzrStk-16" value="&lt;p style=&quot;margin: 0px 0px 0px 4px;&quot;&gt;Input:&amp;nbsp;&lt;/p&gt;&lt;p style=&quot;margin: 0px 0px 0px 4px;&quot;&gt;([128, 12, 128])&lt;/p&gt;&lt;p style=&quot;margin: 0px 0px 0px 4px;&quot;&gt;Output:&lt;/p&gt;&lt;p style=&quot;margin: 0px 0px 0px 4px;&quot;&gt;([128, 12, 64])&lt;/p&gt;" style="text;strokeColor=none;fillColor=none;align=center;verticalAlign=top;spacingLeft=4;spacingRight=4;overflow=hidden;rotatable=0;points=[[0,0.5],[1,0.5]];portConstraint=eastwest;whiteSpace=wrap;html=1;" vertex="1" parent="-qG79by7kBqQ-nuzrStk-13">
          <mxGeometry y="88" width="160" height="70" as="geometry" />
        </mxCell>
        <mxCell id="-qG79by7kBqQ-nuzrStk-17" value="" style="edgeStyle=orthogonalEdgeStyle;rounded=0;orthogonalLoop=1;jettySize=auto;html=1;" edge="1" parent="1" source="-qG79by7kBqQ-nuzrStk-18">
          <mxGeometry relative="1" as="geometry">
            <mxPoint x="-460" y="1120" as="targetPoint" />
            <Array as="points">
              <mxPoint x="-460" y="1139" />
              <mxPoint x="-460" y="1139" />
            </Array>
          </mxGeometry>
        </mxCell>
        <mxCell id="-qG79by7kBqQ-nuzrStk-18" value="Dropout_2" style="swimlane;fontStyle=1;align=center;verticalAlign=top;childLayout=stackLayout;horizontal=1;startSize=26;horizontalStack=0;resizeParent=1;resizeParentMax=0;resizeLast=0;collapsible=1;marginBottom=0;whiteSpace=wrap;html=1;" vertex="1" parent="1">
          <mxGeometry x="-540" y="1160" width="160" height="128" as="geometry" />
        </mxCell>
        <mxCell id="-qG79by7kBqQ-nuzrStk-19" value="rate:0.3" style="text;strokeColor=none;fillColor=none;align=center;verticalAlign=top;spacingLeft=4;spacingRight=4;overflow=hidden;rotatable=0;points=[[0,0.5],[1,0.5]];portConstraint=eastwest;whiteSpace=wrap;html=1;" vertex="1" parent="-qG79by7kBqQ-nuzrStk-18">
          <mxGeometry y="26" width="160" height="24" as="geometry" />
        </mxCell>
        <mxCell id="-qG79by7kBqQ-nuzrStk-20" value="" style="line;strokeWidth=1;fillColor=none;align=left;verticalAlign=middle;spacingTop=-1;spacingLeft=3;spacingRight=3;rotatable=0;labelPosition=right;points=[];portConstraint=eastwest;strokeColor=inherit;" vertex="1" parent="-qG79by7kBqQ-nuzrStk-18">
          <mxGeometry y="50" width="160" height="8" as="geometry" />
        </mxCell>
        <mxCell id="-qG79by7kBqQ-nuzrStk-21" value="&lt;p style=&quot;margin: 0px 0px 0px 4px;&quot;&gt;Input:&amp;nbsp;&lt;/p&gt;&lt;p style=&quot;margin: 0px 0px 0px 4px;&quot;&gt;([128, 12, 64])&lt;/p&gt;&lt;p style=&quot;margin: 0px 0px 0px 4px;&quot;&gt;Output:&lt;/p&gt;&lt;p style=&quot;margin: 0px 0px 0px 4px;&quot;&gt;([128, 12, 64])&lt;/p&gt;" style="text;strokeColor=none;fillColor=none;align=center;verticalAlign=top;spacingLeft=4;spacingRight=4;overflow=hidden;rotatable=0;points=[[0,0.5],[1,0.5]];portConstraint=eastwest;whiteSpace=wrap;html=1;" vertex="1" parent="-qG79by7kBqQ-nuzrStk-18">
          <mxGeometry y="58" width="160" height="70" as="geometry" />
        </mxCell>
        <mxCell id="-qG79by7kBqQ-nuzrStk-22" value="" style="edgeStyle=orthogonalEdgeStyle;rounded=0;orthogonalLoop=1;jettySize=auto;html=1;" edge="1" parent="1" source="-qG79by7kBqQ-nuzrStk-16" target="-qG79by7kBqQ-nuzrStk-21">
          <mxGeometry relative="1" as="geometry" />
        </mxCell>
        <mxCell id="-qG79by7kBqQ-nuzrStk-23" value="" style="edgeStyle=orthogonalEdgeStyle;rounded=0;orthogonalLoop=1;jettySize=auto;html=1;" edge="1" parent="1" source="-qG79by7kBqQ-nuzrStk-24" target="-qG79by7kBqQ-nuzrStk-31">
          <mxGeometry relative="1" as="geometry">
            <Array as="points">
              <mxPoint x="-460" y="939" />
              <mxPoint x="-460" y="939" />
            </Array>
          </mxGeometry>
        </mxCell>
        <mxCell id="-qG79by7kBqQ-nuzrStk-24" value="GRU_3" style="swimlane;fontStyle=1;align=center;verticalAlign=top;childLayout=stackLayout;horizontal=1;startSize=26;horizontalStack=0;resizeParent=1;resizeParentMax=0;resizeLast=0;collapsible=1;marginBottom=0;whiteSpace=wrap;html=1;" vertex="1" parent="1">
          <mxGeometry x="-540" y="960" width="160" height="158" as="geometry" />
        </mxCell>
        <mxCell id="-qG79by7kBqQ-nuzrStk-25" value="units: 64&lt;div&gt;activation: tahn&lt;/div&gt;&lt;div&gt;return_seq: False&lt;/div&gt;" style="text;strokeColor=none;fillColor=none;align=center;verticalAlign=top;spacingLeft=4;spacingRight=4;overflow=hidden;rotatable=0;points=[[0,0.5],[1,0.5]];portConstraint=eastwest;whiteSpace=wrap;html=1;" vertex="1" parent="-qG79by7kBqQ-nuzrStk-24">
          <mxGeometry y="26" width="160" height="54" as="geometry" />
        </mxCell>
        <mxCell id="-qG79by7kBqQ-nuzrStk-26" value="" style="line;strokeWidth=1;fillColor=none;align=left;verticalAlign=middle;spacingTop=-1;spacingLeft=3;spacingRight=3;rotatable=0;labelPosition=right;points=[];portConstraint=eastwest;strokeColor=inherit;" vertex="1" parent="-qG79by7kBqQ-nuzrStk-24">
          <mxGeometry y="80" width="160" height="8" as="geometry" />
        </mxCell>
        <mxCell id="-qG79by7kBqQ-nuzrStk-27" value="&lt;p style=&quot;margin: 0px 0px 0px 4px;&quot;&gt;Input:&amp;nbsp;&lt;/p&gt;&lt;p style=&quot;margin: 0px 0px 0px 4px;&quot;&gt;([128, 12, 64])&lt;/p&gt;&lt;p style=&quot;margin: 0px 0px 0px 4px;&quot;&gt;Output:&lt;/p&gt;&lt;p style=&quot;margin: 0px 0px 0px 4px;&quot;&gt;([128, 64])&lt;/p&gt;" style="text;strokeColor=none;fillColor=none;align=center;verticalAlign=top;spacingLeft=4;spacingRight=4;overflow=hidden;rotatable=0;points=[[0,0.5],[1,0.5]];portConstraint=eastwest;whiteSpace=wrap;html=1;" vertex="1" parent="-qG79by7kBqQ-nuzrStk-24">
          <mxGeometry y="88" width="160" height="70" as="geometry" />
        </mxCell>
        <mxCell id="-qG79by7kBqQ-nuzrStk-28" value="Dropout_3" style="swimlane;fontStyle=1;align=center;verticalAlign=top;childLayout=stackLayout;horizontal=1;startSize=26;horizontalStack=0;resizeParent=1;resizeParentMax=0;resizeLast=0;collapsible=1;marginBottom=0;whiteSpace=wrap;html=1;" vertex="1" parent="1">
          <mxGeometry x="-540" y="790" width="160" height="128" as="geometry" />
        </mxCell>
        <mxCell id="-qG79by7kBqQ-nuzrStk-29" value="rate:0.3" style="text;strokeColor=none;fillColor=none;align=center;verticalAlign=top;spacingLeft=4;spacingRight=4;overflow=hidden;rotatable=0;points=[[0,0.5],[1,0.5]];portConstraint=eastwest;whiteSpace=wrap;html=1;" vertex="1" parent="-qG79by7kBqQ-nuzrStk-28">
          <mxGeometry y="26" width="160" height="24" as="geometry" />
        </mxCell>
        <mxCell id="-qG79by7kBqQ-nuzrStk-30" value="" style="line;strokeWidth=1;fillColor=none;align=left;verticalAlign=middle;spacingTop=-1;spacingLeft=3;spacingRight=3;rotatable=0;labelPosition=right;points=[];portConstraint=eastwest;strokeColor=inherit;" vertex="1" parent="-qG79by7kBqQ-nuzrStk-28">
          <mxGeometry y="50" width="160" height="8" as="geometry" />
        </mxCell>
        <mxCell id="-qG79by7kBqQ-nuzrStk-31" value="&lt;p style=&quot;margin: 0px 0px 0px 4px;&quot;&gt;Input:&amp;nbsp;&lt;/p&gt;&lt;p style=&quot;margin: 0px 0px 0px 4px;&quot;&gt;([128, 64])&lt;/p&gt;&lt;p style=&quot;margin: 0px 0px 0px 4px;&quot;&gt;Output:&lt;/p&gt;&lt;p style=&quot;margin: 0px 0px 0px 4px;&quot;&gt;([128, 64])&lt;/p&gt;" style="text;strokeColor=none;fillColor=none;align=center;verticalAlign=top;spacingLeft=4;spacingRight=4;overflow=hidden;rotatable=0;points=[[0,0.5],[1,0.5]];portConstraint=eastwest;whiteSpace=wrap;html=1;" vertex="1" parent="-qG79by7kBqQ-nuzrStk-28">
          <mxGeometry y="58" width="160" height="70" as="geometry" />
        </mxCell>
        <mxCell id="-qG79by7kBqQ-nuzrStk-32" value="Dense" style="swimlane;fontStyle=1;align=center;verticalAlign=top;childLayout=stackLayout;horizontal=1;startSize=26;horizontalStack=0;resizeParent=1;resizeParentMax=0;resizeLast=0;collapsible=1;marginBottom=0;whiteSpace=wrap;html=1;" vertex="1" parent="1">
          <mxGeometry x="-540" y="630" width="160" height="128" as="geometry" />
        </mxCell>
        <mxCell id="-qG79by7kBqQ-nuzrStk-33" value="units: 1" style="text;strokeColor=none;fillColor=none;align=center;verticalAlign=top;spacingLeft=4;spacingRight=4;overflow=hidden;rotatable=0;points=[[0,0.5],[1,0.5]];portConstraint=eastwest;whiteSpace=wrap;html=1;" vertex="1" parent="-qG79by7kBqQ-nuzrStk-32">
          <mxGeometry y="26" width="160" height="24" as="geometry" />
        </mxCell>
        <mxCell id="-qG79by7kBqQ-nuzrStk-34" value="" style="line;strokeWidth=1;fillColor=none;align=left;verticalAlign=middle;spacingTop=-1;spacingLeft=3;spacingRight=3;rotatable=0;labelPosition=right;points=[];portConstraint=eastwest;strokeColor=inherit;" vertex="1" parent="-qG79by7kBqQ-nuzrStk-32">
          <mxGeometry y="50" width="160" height="8" as="geometry" />
        </mxCell>
        <mxCell id="-qG79by7kBqQ-nuzrStk-35" value="&lt;p style=&quot;margin: 0px 0px 0px 4px;&quot;&gt;Input:&amp;nbsp;&lt;/p&gt;&lt;p style=&quot;margin: 0px 0px 0px 4px;&quot;&gt;([128, 64])&lt;/p&gt;&lt;p style=&quot;margin: 0px 0px 0px 4px;&quot;&gt;Output:&lt;/p&gt;&lt;p style=&quot;margin: 0px 0px 0px 4px;&quot;&gt;([128, 1])&lt;/p&gt;" style="text;strokeColor=none;fillColor=none;align=center;verticalAlign=top;spacingLeft=4;spacingRight=4;overflow=hidden;rotatable=0;points=[[0,0.5],[1,0.5]];portConstraint=eastwest;whiteSpace=wrap;html=1;" vertex="1" parent="-qG79by7kBqQ-nuzrStk-32">
          <mxGeometry y="58" width="160" height="70" as="geometry" />
        </mxCell>
      </root>
    </mxGraphModel>
  </diagram>
</mxfile>
